# xmcd CD database file
#
# Track frame offsets:
#	150
#	17620
#	32952
#	48467
#	65730
#	80647
#	99127
#	115912
#	129322
#	143190
#
# Disc length: 2117 seconds
#
# Revision: 4
# Processed by: cddbd v1.5.2PL0 Copyright (c) Steve Scherf et al.
# Submitted via: CDex 1.70beta2
#
DISCID=8408430a
DTITLE=Mark Chesnutt - Lost In The Feeling
DYEAR=2000
DGENRE=Country
TTITLE0=Fallin' Never Felt So Good
TTITLE1=Confessin' My Love
TTITLE2=Halfway Back To Birmingham
TTITLE3=Try Being Me
TTITLE4=Go Away
TTITLE5=It Pays Big Money
TTITLE6=Love In The Hot Afternoon
TTITLE7=Angelina
TTITLE8=Lost In The Feeling
TTITLE9=Somewhere Out There Tonight
EXTD=YEAR: 2000
EXTT0=
EXTT1=
EXTT2=
EXTT3=
EXTT4=
EXTT5=
EXTT6=
EXTT7=
EXTT8=
EXTT9=
PLAYORDER=
